<svg xmlns="http://www.w3.org/2000/svg" viewBox="0 0 640 360" role="img" aria-labelledby="title desc">
  <title id="title">通報確認</title>
  <desc id="desc">手機通報、位置標記、照片紀錄與安全確認的公益服務插畫。</desc>
  <defs>
    <linearGradient id="bg" x1="0" y1="0" x2="1" y2="1">
      <stop offset="0" stop-color="#fbf7ed"/>
      <stop offset=".56" stop-color="#eef6f1"/>
      <stop offset="1" stop-color="#eaf4f8"/>
    </linearGradient>
    <linearGradient id="card" x1="0" y1="0" x2="1" y2="1">
      <stop offset="0" stop-color="#fffdfa"/>
      <stop offset="1" stop-color="#f7efe0"/>
    </linearGradient>
    <filter id="shadow" x="-20%" y="-20%" width="140%" height="150%">
      <feDropShadow dx="0" dy="18" stdDeviation="18" flood-color="#21352d" flood-opacity=".14"/>
    </filter>
  </defs>
  <rect width="640" height="360" rx="32" fill="url(#bg)"/>
  <circle cx="96" cy="78" r="54" fill="#f2d59c" opacity=".28"/>
  <circle cx="542" cy="290" r="74" fill="#8db8ca" opacity=".18"/>
  <path d="M71 281c84 33 159 17 231-5 92-28 190-50 269 6" fill="none" stroke="#2f7d5a" stroke-width="5" stroke-linecap="round" opacity=".16"/>
  <g filter="url(#shadow)">
    <rect x="132" y="72" width="236" height="208" rx="28" fill="url(#card)" stroke="#d6c29a" stroke-width="3"/>
    <rect x="160" y="105" width="92" height="62" rx="16" fill="#e8f2f6"/>
    <path d="M176 150l22-24 18 18 13-13 23 19" fill="none" stroke="#6f9db2" stroke-width="7" stroke-linecap="round" stroke-linejoin="round"/>
    <circle cx="232" cy="124" r="8" fill="#d79b33"/>
    <path d="M162 197h148M162 226h112M162 255h132" stroke="#394c42" stroke-width="9" stroke-linecap="round"/>
  </g>
  <g filter="url(#shadow)">
    <rect x="338" y="112" width="144" height="176" rx="24" fill="#ffffff" stroke="#c7dccf" stroke-width="3"/>
    <rect x="370" y="132" width="80" height="12" rx="6" fill="#2f7d5a"/>
    <path d="M377 184c0-30 22-54 49-54s49 24 49 54c0 37-49 82-49 82s-49-45-49-82z" fill="#2f7d5a"/>
    <circle cx="426" cy="184" r="24" fill="#fff9e9"/>
  </g>
  <g filter="url(#shadow)">
    <circle cx="499" cy="111" r="44" fill="#2f7d5a"/>
    <path d="M479 111l15 16 31-36" fill="none" stroke="#fff7df" stroke-width="11" stroke-linecap="round" stroke-linejoin="round"/>
  </g>
  <path d="M88 198c18-25 43-39 74-40M512 151c25 6 43 20 55 43" fill="none" stroke="#25352d" stroke-width="6" stroke-linecap="round" opacity=".2"/>
</svg>
