<svg xmlns="http://www.w3.org/2000/svg" width="1400" height="900" viewBox="0 0 1400 900" role="img" aria-label="LINE AI business assistant workflow diagram in English"><rect width="1400" height="900" rx="32" fill="#f8fbff"/><text x="700" y="78" text-anchor="middle" font-family="Arial, sans-serif" font-size="44" font-weight="900" fill="#0f172a">LINE AI Business Assistant</text><text x="700" y="120" text-anchor="middle" font-family="Arial, sans-serif" font-size="22" fill="#334155">Chat, tender search, business card OCR and public data routing</text><g font-family="Arial, sans-serif"><rect x="80" y="230" width="230" height="120" rx="20" fill="#ecfdf5" stroke="#16a34a" stroke-width="3"/><text x="195" y="282" text-anchor="middle" font-size="24" font-weight="800" fill="#14532d">LINE Message</text><text x="195" y="316" text-anchor="middle" font-size="17" fill="#334155">normalize input</text><rect x="420" y="230" width="230" height="120" rx="20" fill="#eff6ff" stroke="#2563eb" stroke-width="3"/><text x="535" y="282" text-anchor="middle" font-size="24" font-weight="800" fill="#1e3a8a">n8n Router</text><text x="535" y="316" text-anchor="middle" font-size="17" fill="#334155">detect intent</text><rect x="760" y="230" width="230" height="120" rx="20" fill="#fff7ed" stroke="#f97316" stroke-width="3"/><text x="875" y="282" text-anchor="middle" font-size="24" font-weight="800" fill="#9a3412">AI / Tools</text><text x="875" y="316" text-anchor="middle" font-size="17" fill="#334155">query and answer</text><rect x="1090" y="230" width="230" height="120" rx="20" fill="#f5f3ff" stroke="#8b5cf6" stroke-width="3"/><text x="1205" y="282" text-anchor="middle" font-size="24" font-weight="800" fill="#4c1d95">Reply + Log</text><text x="1205" y="316" text-anchor="middle" font-size="17" fill="#334155">track follow-up</text><path d="M310 290 H420M650 290 H760M990 290 H1090" stroke="#155bd5" stroke-width="5"/><rect x="170" y="530" width="260" height="95" rx="18" fill="#ffffff" stroke="#cbd5e1"/><text x="300" y="585" text-anchor="middle" font-size="20" font-weight="800" fill="#0f172a">General Chat</text><rect x="455" y="530" width="260" height="95" rx="18" fill="#ffffff" stroke="#cbd5e1"/><text x="585" y="585" text-anchor="middle" font-size="20" font-weight="800" fill="#0f172a">Tender Search</text><rect x="740" y="530" width="260" height="95" rx="18" fill="#ffffff" stroke="#cbd5e1"/><text x="870" y="585" text-anchor="middle" font-size="20" font-weight="800" fill="#0f172a">Card OCR</text><rect x="1025" y="530" width="260" height="95" rx="18" fill="#ffffff" stroke="#cbd5e1"/><text x="1155" y="585" text-anchor="middle" font-size="20" font-weight="800" fill="#0f172a">Public Data</text></g></svg>
