<svg width="1200" height="1080" viewBox="0 0 1200 1080" fill="none" xmlns="http://www.w3.org/2000/svg">
  <defs>
    <radialGradient id="shine" cx="0" cy="0" r="1" gradientUnits="userSpaceOnUse" gradientTransform="translate(650 390) rotate(110) scale(520 700)">
      <stop stop-color="#FFF8E8"/>
      <stop offset=".55" stop-color="#EBD9BE"/>
      <stop offset="1" stop-color="#C6A87A"/>
    </radialGradient>
    <linearGradient id="gold" x1="206" y1="236" x2="1002" y2="804" gradientUnits="userSpaceOnUse">
      <stop stop-color="#F8DF91"/>
      <stop offset=".36" stop-color="#B8893D"/>
      <stop offset=".7" stop-color="#F2CD73"/>
      <stop offset="1" stop-color="#87611E"/>
    </linearGradient>
  </defs>
  <rect width="1200" height="1080" fill="url(#shine)"/>
  <rect x="105" y="112" width="990" height="856" fill="#F8F1E6" opacity=".58"/>
  <g>
    <ellipse cx="600" cy="730" rx="392" ry="72" fill="#BBA07A" opacity=".32"/>
    <path d="M286 626C384 762 816 762 914 626" stroke="url(#gold)" stroke-width="42" stroke-linecap="round"/>
    <path d="M342 610C426 694 774 694 858 610" stroke="#FFF5DF" stroke-width="13" stroke-linecap="round" opacity=".72"/>
    <circle cx="475" cy="460" r="138" stroke="url(#gold)" stroke-width="42"/>
    <circle cx="475" cy="460" r="78" stroke="#FFF8EA" stroke-width="22" opacity=".82"/>
    <circle cx="705" cy="460" r="126" stroke="url(#gold)" stroke-width="38"/>
    <circle cx="705" cy="460" r="72" stroke="#FFF8EA" stroke-width="18" opacity=".82"/>
    <rect x="372" y="760" width="456" height="96" rx="5" fill="#1D1D1D"/>
    <rect x="422" y="790" width="356" height="12" rx="6" fill="#D4A14C"/>
    <rect x="462" y="818" width="276" height="10" rx="5" fill="#EED69D"/>
  </g>
</svg>
